<svg id="Capa_1" data-name="Capa 1" xmlns="http://www.w3.org/2000/svg" width="11.29mm" height="11.29mm" viewBox="0 0 32 32">
  <defs>
    <style>
      .cls-1 {
        fill: #dc395f;
      }

      .cls-2 {
        fill: #fff;
      }
    </style>
  </defs>
  <g>
    <path class="cls-1" d="M29.1,0H2.9A2.9,2.9,0,0,0,0,2.9V29.1A2.9,2.9,0,0,0,2.9,32H29.1A2.9,2.9,0,0,0,32,29.1V2.9A2.9,2.9,0,0,0,29.1,0"/>
    <path class="cls-2" d="M10.69,10.07A1.93,1.93,0,1,0,8.74,8.14a1.94,1.94,0,0,0,1.95,1.93m-4,10.31a7,7,0,0,0-.17,1.45,2.57,2.57,0,0,0,2.87,2.82,4.59,4.59,0,0,0,3.89-2.51l-.58,2.31h3.22l1.84-7.38c.46-1.86,1.35-2.83,2.7-2.83A1.61,1.61,0,0,1,22.13,16,3.22,3.22,0,0,1,22,17L21,20.42a5.19,5.19,0,0,0-.2,1.43,2.63,2.63,0,0,0,2.93,2.79c1.7,0,3.05-1.09,3.8-3.71l-1.27-.48c-.63,1.75-1.18,2.07-1.61,2.07s-.66-.29-.66-.87a4.14,4.14,0,0,1,.14-.89l.93-3.3a7.68,7.68,0,0,0,.31-2.1c0-2.47-1.49-3.76-3.3-3.76s-3.43,1.53-4.29,3.14l.63-2.89H13.54l-.69,2.54h2.3l-1.42,5.67c-1.11,2.48-3.15,2.52-3.41,2.46-.42-.1-.69-.26-.69-.8a5.62,5.62,0,0,1,.2-1.32L12,11.85H6.53l-.69,2.54H8.11l-1.47,6"/>
  </g>
</svg>
