<svg id="Capa_1" data-name="Capa 1" xmlns="http://www.w3.org/2000/svg" width="11.17mm" height="11.17mm" viewBox="0 0 31.66 31.66">
  <defs>
    <style>
      .cls-1 {
        fill: #563d7c;
      }

      .cls-2 {
        fill: #fff;
      }
    </style>
  </defs>
  <g>
    <path class="cls-1" d="M.17,27.75a4.08,4.08,0,0,0,4.08,4.08h23.5a4.08,4.08,0,0,0,4.08-4.08V4.25A4.08,4.08,0,0,0,27.75.17H4.25A4.08,4.08,0,0,0,.17,4.25v23.5Z" transform="translate(-0.17 -0.17)"/>
    <path class="cls-2" d="M13.3,14.17V9.69h3.95a5.49,5.49,0,0,1,1.08.1,2.7,2.7,0,0,1,.93.33,1.79,1.79,0,0,1,.64.67,2.27,2.27,0,0,1,.24,1.1,2,2,0,0,1-.72,1.75,3,3,0,0,1-1.85.53ZM9.08,6.42V25.58h9.29a9.55,9.55,0,0,0,2.51-.32,6.58,6.58,0,0,0,2.18-1,5,5,0,0,0,1.51-1.73A5.25,5.25,0,0,0,25.14,20,5.34,5.34,0,0,0,24.27,17a4.65,4.65,0,0,0-2.65-1.78,4.75,4.75,0,0,0,1.95-1.59,4.17,4.17,0,0,0,.65-2.41,5.09,5.09,0,0,0-.44-2.26,3.62,3.62,0,0,0-1.25-1.46,5.26,5.26,0,0,0-1.93-.79,12,12,0,0,0-2.5-.24ZM13.3,22.31V17.05h4.59a3.55,3.55,0,0,1,2.2.63,2.46,2.46,0,0,1,.83,2.11A2.61,2.61,0,0,1,20.67,21a2.06,2.06,0,0,1-.69.77,2.94,2.94,0,0,1-1,.4,5.69,5.69,0,0,1-1.18.12Z" transform="translate(-0.17 -0.17)"/>
  </g>
</svg>
