<?xml version="1.0" encoding="UTF-8"?>
<svg width="24px" height="24px" viewBox="0 0 24 24" version="1.1" xmlns="http://www.w3.org/2000/svg" xmlns:xlink="http://www.w3.org/1999/xlink">
    <title>icons / close2</title>
    <g id="icons-/-close2" stroke="none" stroke-width="1" fill="none" fill-rule="evenodd">
        <g id="Group">
            <path d="M0,0 L24,0 L24,24 L0,24 L0,0 Z M0,0 L24,0 L24,24 L0,24 L0,0 Z M0,0 L24,0 L24,24 L0,24 L0,0 Z M0,0 L24,0 L24,24 L0,24 L0,0 Z" id="Shape"></path>
            <path d="M8.0403055,7.34659116 L8.10955339,7.40444661 L11.998,11.293 L15.8874466,7.40444661 C16.0827088,7.20918446 16.3992912,7.20918446 16.5945534,7.40444661 C16.7681197,7.57801296 16.7874049,7.84743736 16.6524088,8.0423055 L16.5945534,8.11155339 L12.705,12 L16.5945534,15.8894466 C16.7898155,16.0847088 16.7898155,16.4012912 16.5945534,16.5965534 C16.420987,16.7701197 16.1515626,16.7894049 15.9566945,16.6544088 L15.8874466,16.5965534 L11.998,12.707 L8.10955339,16.5965534 C7.91429124,16.7918155 7.59770876,16.7918155 7.40244661,16.5965534 C7.22888026,16.422987 7.20959511,16.1535626 7.34459116,15.9586945 L7.40244661,15.8894466 L11.291,12 L7.40244661,8.11155339 C7.20718446,7.91629124 7.20718446,7.59970876 7.40244661,7.40444661 C7.57601296,7.23088026 7.84543736,7.21159511 8.0403055,7.34659116 Z" id="close" fill="#313738"></path>
        </g>
    </g>
</svg>