<?xml version="1.0" encoding="UTF-8"?>
<svg width="32px" height="32px" viewBox="0 0 32 32" version="1.1" xmlns="http://www.w3.org/2000/svg" xmlns:xlink="http://www.w3.org/1999/xlink">
    <title>icons / email</title>
    <g id="icons-/-email" stroke="none" stroke-width="1" fill="none" fill-rule="evenodd">
        <path d="M0,0 L32,0 L32,32 L0,32 L0,0 Z M0,0 L32,0 L32,32 L0,32 L0,0 Z M0,0 L32,0 L32,32 L0,32 L0,0 Z M0,0 L32,0 L32,32 L0,32 L0,0 Z" id="Shape"></path>
        <path d="M16,0 C24.836556,0 32,7.163444 32,16 C32,24.836556 24.836556,32 16,32 C7.163444,32 0,24.836556 0,16 C0,7.163444 7.163444,0 16,0 Z M16,1 C7.71572875,1 1,7.71572875 1,16 C1,24.2842712 7.71572875,31 16,31 C24.2842712,31 31,24.2842712 31,16 C31,7.71572875 24.2842712,1 16,1 Z M22.625,9.4655 C23.1594551,9.4655 23.6547395,9.63320971 24.0610974,9.9188734 C24.2426204,9.87109949 24.4434821,9.9303091 24.5703883,10.0855763 C24.674342,10.2127617 24.705256,10.3757511 24.6682377,10.523728 C24.9554485,10.9303372 25.125,11.4281182 25.125,11.9655 L25.125,11.9655 L25.125,19.9655 C25.125,21.3462119 24.0057119,22.4655 22.625,22.4655 L22.625,22.4655 L9.375,22.4655 C7.99428813,22.4655 6.875,21.3462119 6.875,19.9655 L6.875,19.9655 L6.875,11.9655 C6.875,11.4281182 7.04455154,10.9303372 7.33307699,10.5227348 C7.29474401,10.3757511 7.32565797,10.2127617 7.42961173,10.0855763 C7.55651787,9.9303091 7.75737963,9.87109949 7.93974156,9.91724009 C8.34526053,9.63320971 8.84054492,9.4655 9.375,9.4655 L9.375,9.4655 Z M23.9413127,11.2456625 L16.3164237,17.4776383 C16.1553255,17.6093103 15.9325863,17.6257693 15.7560778,17.5270153 L15.6835763,17.4776383 L8.05868733,11.2456625 C7.94158559,11.4593435 7.875,11.7046458 7.875,11.9655 L7.875,11.9655 L7.875,19.9655 C7.875,20.7939271 8.54657288,21.4655 9.375,21.4655 L9.375,21.4655 L22.625,21.4655 C23.4534271,21.4655 24.125,20.7939271 24.125,19.9655 L24.125,19.9655 L24.125,11.9655 C24.125,11.7046458 24.0584144,11.4593435 23.9413127,11.2456625 Z M22.625,10.4655 L9.375,10.4655 C9.17773688,10.4655 8.9893674,10.5035782 8.81684092,10.5727852 L16,16.444 L23.1831591,10.5727852 C23.0106326,10.5035782 22.8222631,10.4655 22.625,10.4655 L22.625,10.4655 Z" id="Combined-Shape" fill="#313738"></path>
    </g>
</svg>