<svg id="Capa_1" data-name="Capa 1" xmlns="http://www.w3.org/2000/svg" xmlns:xlink="http://www.w3.org/1999/xlink" width="11.28mm" height="11.35mm" viewBox="0 0 31.98 32.18">
  <defs>
    <style>
      .cls-1 {
        fill: url(#Degradado_sin_nombre_3);
      }

      .cls-2 {
        fill: #ff7f18;
      }
    </style>
    <radialGradient id="Degradado_sin_nombre_3" data-name="Degradado sin nombre 3" cx="-465.94" cy="108.56" r="0.01" gradientTransform="matrix(2291.67, 0, 0, -2218.75, 1067785.46, 240882.63)" gradientUnits="userSpaceOnUse">
      <stop offset="0" stop-color="#423325" stop-opacity="0.98"/>
      <stop offset="1" stop-color="#1c0a00"/>
    </radialGradient>
  </defs>
  <g>
    <path class="cls-1" d="M1.33,1.33H30.65V29.85H1.33Z" transform="translate(0)"/>
    <path class="cls-2" d="M1.33,1.33H30.65V29.85H1.33ZM0,32.18H32V0H0ZM21,11.11c0-.1,0-.16.16-.16H23.2c.11,0,.16,0,.16.16V21.63c0,.1,0,.16-.16.16H21.13c-.13,0-.17-.07-.17-.18V11.11Zm-.15-3a1.36,1.36,0,0,1,2.72,0,1.27,1.27,0,0,1-1.39,1.36A1.25,1.25,0,0,1,20.8,8.09Zm-6,7.41c-.37-1.48-1.25-4.71-1.58-6.27h0c-.28,1.56-1,4.2-1.54,6.27Zm-3.7,2.16-1,4c0,.11-.07.14-.2.14h-2c-.13,0-.16,0-.13-.2L11.54,8.34a3.9,3.9,0,0,0,.13-1.1c0-.1,0-.14.11-.14h2.8c.09,0,.13,0,.16.14L19,21.61c0,.11,0,.18-.1.18H16.66c-.11,0-.18,0-.2-.12l-1.1-4Z" transform="translate(0)"/>
  </g>
</svg>
