<svg id="Capa_1" data-name="Capa 1" xmlns="http://www.w3.org/2000/svg" xmlns:xlink="http://www.w3.org/1999/xlink" width="11.2mm" height="11.35mm" viewBox="0 0 31.74 32.18">
  <defs>
    <style>
      .cls-1 {
        fill: url(#Degradado_sin_nombre_6);
      }

      .cls-2 {
        fill: #ff408c;
      }
    </style>
    <radialGradient id="Degradado_sin_nombre_6" data-name="Degradado sin nombre 6" cx="-465.94" cy="108.56" r="0.01" gradientTransform="matrix(2291.67, 0, 0, -2218.75, 1067785.46, 240882.63)" gradientUnits="userSpaceOnUse">
      <stop offset="0" stop-color="#4b2b36" stop-opacity="0.98"/>
      <stop offset="1" stop-color="#250012"/>
    </radialGradient>
  </defs>
  <g>
    <path class="cls-1" d="M1.58,1.41h29.1v28.3H1.58Z" transform="translate(-0.26 0.03)"/>
    <path class="cls-2" d="M1.58,1.31h29.1V29.82H1.58ZM.26,32.15H32V0H.26ZM20.34,12.93a1.79,1.79,0,0,0-.78-.14c-1.71,0-2.9,1.32-2.9,3.52,0,2.51,1.22,3.52,2.74,3.52a2.38,2.38,0,0,0,.94-.16Zm-.71-2.18a5.54,5.54,0,0,1,.71,0V7.24a.12.12,0,0,1,.13-.14h2.14c.11,0,.13,0,.13.11V19.67A9.47,9.47,0,0,0,22.81,21c0,.1,0,.11-.12.16a8,8,0,0,1-3.47.79c-2.92,0-5-1.83-5-5.54a5.3,5.3,0,0,1,5.42-5.67ZM11.87,21.59c0,.13,0,.17-.17.17h-2a.15.15,0,0,1-.17-.17V7.28c0-.14.07-.18.17-.18h2.05c.11,0,.16,0,.16.16Z" transform="translate(-0.26 0.03)"/>
  </g>
</svg>
