<svg id="Capa_1" data-name="Capa 1" xmlns="http://www.w3.org/2000/svg" width="10.88mm" height="10.88mm" viewBox="0 0 30.84 30.84">
  <defs>
    <style>
      .cls-1 {
        fill: #313738;
        fill-rule: evenodd;
      }
    </style>
  </defs>
  <path id="Shape" class="cls-1" d="M15.93.33A15.42,15.42,0,1,0,31.34,15.75,15.43,15.43,0,0,0,15.93.33Zm0,1.28A14.14,14.14,0,1,1,1.79,15.75,14.15,14.15,0,0,1,15.93,1.61ZM9.42,8.06,8.47,9a3.11,3.11,0,0,0-.9,2.19c0,2.36,2.49,6.21,5.12,8.75,2.35,2.27,5.49,4.16,7.79,4.16a3.09,3.09,0,0,0,2.19-.9l.94-.94a2.25,2.25,0,0,0,0-3.2l-1.72-1.72a2.24,2.24,0,0,0-1.6-.67h-.22a2.36,2.36,0,0,0-1.38.66l-1.15,1.15-.41-.2A8.66,8.66,0,0,1,15,16.69l-.32-.33a8.89,8.89,0,0,1-1.28-1.81l-.2-.42L14.34,13a2.27,2.27,0,0,0,0-3.2L12.62,8.06A2.27,2.27,0,0,0,9.42,8.06ZM11.71,9l1.72,1.72a1,1,0,0,1,0,1.38L12,13.53a.67.67,0,0,0-.15.7,10.34,10.34,0,0,0,5.63,5.62.65.65,0,0,0,.69-.14l1.46-1.46a1,1,0,0,1,.69-.29,1,1,0,0,1,.7.29L22.71,20a1,1,0,0,1,.28.7,1,1,0,0,1-.28.69l-.95.94a1.78,1.78,0,0,1-1.28.52c-1.87,0-4.76-1.74-6.89-3.79-2.4-2.32-4.73-5.93-4.73-7.83a1.8,1.8,0,0,1,.52-1.28L10.33,9A1,1,0,0,1,11.71,9Z" transform="translate(-0.51 -0.33)"/>
</svg>
