<svg id="Capa_1" data-name="Capa 1" xmlns="http://www.w3.org/2000/svg" width="11.29mm" height="11.29mm" viewBox="0 0 32 32">
  <defs>
    <style>
      .cls-1 {
        fill: #cf649a;
      }

      .cls-2 {
        fill: none;
      }
    </style>
  </defs>
  <g>
    <path class="cls-1" d="M27.57,17.71a6.59,6.59,0,0,0-2.89.68,6,6,0,0,1-.65-1.5A4.3,4.3,0,0,1,24,15.63a8.84,8.84,0,0,1,.38-1.35c0-.06-.07-.33-.71-.34s-1.2.13-1.26.29a7.49,7.49,0,0,0-.27,1,22.43,22.43,0,0,1-1.95,3.74,4.06,4.06,0,0,1-.44-1.09,4.3,4.3,0,0,1-.05-1.26,9.49,9.49,0,0,1,.38-1.36c0-.05-.07-.33-.71-.33s-1.2.12-1.26.29-.13.57-.27.95S16.13,20,15.73,20.88c-.2.46-.39.83-.52,1.08s0,0,0,0l-.18.33h0c-.09.15-.18.3-.22.3a2,2,0,0,1,0-1c.23-1.2.79-3.07.78-3.14s.11-.36-.36-.53a.56.56,0,0,0-.65.11s-.07.1-.07.1.5-2.11-1-2.11A4.34,4.34,0,0,0,10.73,18L8.59,19.17l-1,.57-.07-.08c-1.78-1.9-5.07-3.24-4.93-5.79.05-.93.37-3.38,6.32-6.34,4.88-2.42,8.78-1.76,9.46-.28,1,2.12-2.09,6.05-7.15,6.62A3.79,3.79,0,0,1,8,13.06c-.27-.29-.31-.31-.41-.25s-.06.35,0,.5A3,3,0,0,0,9.4,14.75a9.7,9.7,0,0,0,5.93-.58C18.4,13,20.8,9.68,20.09,6.92s-5.37-3.73-9.77-2.16a22.09,22.09,0,0,0-7.5,4.3C.4,11.32,0,13.3.17,14.12.74,17.05,4.78,19,6.4,20.38l-.23.12c-.81.4-3.89,2-4.66,3.72-.87,1.93.14,3.31.81,3.5a5,5,0,0,0,5.36-2.17,5.39,5.39,0,0,0,.48-4.95l0,0,.63-.37,1.17-.66a7.55,7.55,0,0,0-.41,2.12,4.4,4.4,0,0,0,1,3.07,1.06,1.06,0,0,0,.76.25c.69,0,1-.57,1.34-1.25s.8-1.78.8-1.78-.47,2.59.81,2.59c.46,0,.93-.6,1.14-.91h0l0-.07a.75.75,0,0,0,.07-.12h0c.19-.32.61-1.06,1.23-2.29.8-1.58,1.57-3.56,1.57-3.56a12,12,0,0,0,.31,1.28,11.38,11.38,0,0,0,.67,1.5l-.3.41h0c-.15.2-.31.42-.49.63a18.7,18.7,0,0,0-1.49,1.87.52.52,0,0,0,.13.69,1.33,1.33,0,0,0,.79.12A3.5,3.5,0,0,0,19,23.81a4.12,4.12,0,0,0,1-.53,2.23,2.23,0,0,0,1-2,3.88,3.88,0,0,0-.37-1.4,2.2,2.2,0,0,0,.17-.25,25.09,25.09,0,0,0,1.74-3,12,12,0,0,0,.31,1.28,7.87,7.87,0,0,0,.57,1.28,5.53,5.53,0,0,0-1.7,2.2c-.37,1.06-.08,1.54.46,1.65a1.66,1.66,0,0,0,.85-.17,4,4,0,0,0,1.08-.56,2.44,2.44,0,0,0,1.19-2A4,4,0,0,0,25,19.18a6,6,0,0,1,3.08-.35c2.77.32,3.32,2.05,3.22,2.77a1.92,1.92,0,0,1-.88,1.25c-.19.12-.26.16-.24.25s.11.12.28.1A2.18,2.18,0,0,0,32,21.27c.07-1.71-1.55-3.58-4.43-3.56ZM6.21,24.91c-.92,1-2.2,1.38-2.75,1.06s-.36-1.82.76-2.88a15.19,15.19,0,0,1,2.16-1.61L7,21.14l.06,0L7.15,21a4,4,0,0,1-.94,3.9Zm6.69-4.55c-.32.78-1,2.78-1.4,2.67s-.56-1.61-.06-3.1a6.81,6.81,0,0,1,1.09-2c.5-.56,1.05-.75,1.18-.52S13.1,19.88,12.9,20.36ZM18.42,23c-.14.07-.26.12-.32.08s.06-.11.06-.11.69-.75,1-1.09l.54-.69v.08A2.3,2.3,0,0,1,18.42,23Zm4.26-1c-.1-.07-.09-.3.24-1a3.73,3.73,0,0,1,.95-1.22,1.44,1.44,0,0,1,.09.53A1.74,1.74,0,0,1,22.68,22Z"/>
    <rect class="cls-2" width="32" height="32"/>
  </g>
</svg>
