<svg id="Capa_1" data-name="Capa 1" xmlns="http://www.w3.org/2000/svg" width="11.24mm" height="11.24mm" viewBox="0 0 31.87 31.87">
  <defs>
    <style>
      .cls-1 {
        fill: #fdbd39;
      }

      .cls-2 {
        fill: #f69833;
      }

      .cls-3 {
        fill: #fecf33;
      }

      .cls-4 {
        fill: #ee6723;
      }

      .cls-5 {
        fill: none;
      }
    </style>
  </defs>
  <g>
    <g>
      <path class="cls-1" d="M5,20.81l-1.66.6-.08,4.94L9,24.25a6,6,0,0,1-4-3.44" transform="translate(-0.13)"/>
      <path class="cls-2" d="M5.89,15.58.13,17.69l3.23,3.73L5,20.81a6.07,6.07,0,0,1,.87-5.23" transform="translate(-0.13)"/>
      <path class="cls-3" d="M15.59,8.46C8.25,11.14,3.52,16.67,5,20.81L31.59,11.1c-1.5-4.14-8.67-5.32-16-2.64" transform="translate(-0.13)"/>
      <path class="cls-4" d="M21,23.46c7.34-2.68,12.08-8.19,10.57-12.36L5,20.81c1.51,4.17,8.67,5.33,16,2.65" transform="translate(-0.13)"/>
      <path class="cls-2" d="M31.59,11.1,5,20.81C5.54,22.24,7.53,23,10.31,23a30,30,0,0,0,9.81-2c7.33-2.68,12.5-7,11.47-9.86" transform="translate(-0.13)"/>
      <path class="cls-1" d="M26.3,9a29.78,29.78,0,0,0-9.81,2C9.16,13.64,4,18,5,20.81L31.59,11.1C31.07,9.67,29.08,9,26.3,9" transform="translate(-0.13)"/>
      <g>
        <path class="cls-4" d="M24.83,26.62c-.78,0-1.93-.71-3.42-2.1a44.1,44.1,0,0,1-5.7-6.8A44,44,0,0,1,11.3,10c-1-2.43-1.17-3.92-.44-4.44a.94.94,0,0,1,.58-.17c.6,0,1.76.44,3.92,2.56l.05,0V8.1c0,.15,0,.3,0,.45l0,.3-.21-.21C12.8,6.3,11.78,6.05,11.45,6.05a.36.36,0,0,0-.22.06c-.32.22-.34,1.32.65,3.67a43.18,43.18,0,0,0,4.35,7.58,42.68,42.68,0,0,0,5.61,6.69c1.87,1.75,2.71,1.94,3,1.94a.37.37,0,0,0,.23-.06c.34-.24.34-1.41-.77-3.95l-.05-.11.11-.07.32-.17.14-.08.06.14c.78,1.8,1.51,4.08.55,4.76a1.06,1.06,0,0,1-.58.17Zm0-.28v0Z" transform="translate(-0.13)"/>
        <path class="cls-4" d="M21.2,23.38v.14c-.18,2.29-.67,5.05-2,5.16h-.07c-.87,0-1.69-1.23-2.43-3.68a44.36,44.36,0,0,1-1.55-8.74,44.32,44.32,0,0,1,0-8.88c.32-2.62.94-4,1.83-4.06h.08c.63,0,1.58.71,2.55,4L19,7.46a12.79,12.79,0,0,0-1-2.63c-.32-.57-.64-.88-.89-.88h0c-.39,0-.95,1-1.27,3.51a44.42,44.42,0,0,0,0,8.74,43.87,43.87,0,0,0,1.53,8.62,11.61,11.61,0,0,0,1,2.42c.3.52.6.81.84.81h0c.37,0,1.07-1,1.36-4.45Z" transform="translate(-0.13)"/>
      </g>
    </g>
    <rect class="cls-5" width="31.87" height="31.87"/>
  </g>
</svg>
